<svg width="20" height="24" viewBox="0 0 20 24" fill="none" xmlns="http://www.w3.org/2000/svg">
<path d="M5.15251 0.232101L0.847506 3.64233C0.754661 3.71587 0.681013 3.80319 0.630766 3.89928C0.580519 3.99538 0.554657 4.09837 0.554657 4.20238C0.554657 4.30639 0.580519 4.40939 0.630766 4.50548C0.681013 4.60157 0.754661 4.68889 0.847506 4.76243C0.940351 4.83598 1.05057 4.89432 1.17188 4.93413C1.29319 4.97393 1.4232 4.99442 1.55451 4.99442C1.68581 4.99442 1.81582 4.97393 1.93713 4.93413C2.05844 4.89432 2.16866 4.83598 2.26151 4.76243L4.85951 2.70442V22.9725C4.85951 23.1826 4.96486 23.3841 5.1524 23.5326C5.33994 23.6812 5.59429 23.7646 5.85951 23.7646C6.12472 23.7646 6.37908 23.6812 6.56661 23.5326C6.75415 23.3841 6.85951 23.1826 6.85951 22.9725V0.792155C6.85946 0.635506 6.80079 0.482384 6.69091 0.352146C6.58102 0.221908 6.42486 0.120401 6.24216 0.0604589C6.05946 0.000516515 5.85843 -0.0151705 5.66447 0.0153809C5.47052 0.0459324 5.29236 0.121351 5.15251 0.232101ZM14.1405 0C13.8753 0 13.6209 0.0834589 13.4334 0.232017C13.2459 0.380574 13.1405 0.582062 13.1405 0.792155V22.9725C13.1401 23.1293 13.1985 23.2827 13.3083 23.4132C13.4181 23.5437 13.5743 23.6454 13.7572 23.7054C13.9401 23.7654 14.1414 23.781 14.3355 23.7502C14.5296 23.7194 14.7078 23.6437 14.8475 23.5325L19.1525 20.1223C19.34 19.9738 19.4454 19.7723 19.4454 19.5623C19.4454 19.3522 19.34 19.1507 19.1525 19.0022C18.965 18.8537 18.7107 18.7702 18.4455 18.7702C18.1803 18.7702 17.926 18.8537 17.7385 19.0022L15.1405 21.0602V0.792155C15.1405 0.582062 15.0351 0.380574 14.8476 0.232017C14.6601 0.0834589 14.4057 0 14.1405 0Z" fill="white"/>
</svg>
